<svg xmlns="http://www.w3.org/2000/svg" viewBox="0 0 520 165">
  <defs>
    <mask id="mangoCutLight">
      <rect width="520" height="165" fill="white"/>
      <line x1="91" y1="85" x2="132" y2="126"
            stroke="black" stroke-width="32" stroke-linecap="round"/>
      <line x1="93" y1="87" x2="123" y2="117"
            stroke="white" stroke-width="13" stroke-linecap="round"/>
    </mask>
  </defs>

  <path fill-rule="evenodd" fill="#45C6C0" mask="url(#mangoCutLight)" d="
    M 74 8
    C 40 8 13 35 13 69
    C 13 88 22 105 36 116
    C 48 126 74 158 74 158
    C 74 158 100 126 112 116
    C 126 105 135 88 135 69
    C 135 35 108 8 74 8 Z

    M 29 69
    A 45 45 0 0 1 119 69
    A 45 45 0 0 1 29 69 Z
  "/>

  <circle cx="74" cy="69" r="27" fill="none" stroke="#F9C200" stroke-width="13"/>
  <line x1="93" y1="87" x2="122" y2="116"
        stroke="#F9C200" stroke-width="13" stroke-linecap="round"/>

  <text x="160" y="108"
        font-family="'Montserrat','Arial Black','Arial',sans-serif"
        font-size="74" font-weight="900" letter-spacing="0">
    <tspan fill="#45C6C0">FYN</tspan><tspan fill="#F9C200">DER</tspan>
  </text>
</svg>
