<svg xmlns="http://www.w3.org/2000/svg" viewBox="0 0 520 165">
  <defs>
    <mask id="m">
      <rect width="520" height="165" fill="white"/>
      <circle cx="74" cy="69" r="47" fill="black"/>
      <line x1="88" y1="82" x2="133" y2="127"
            stroke="black" stroke-width="38" stroke-linecap="round"/>
    </mask>
  </defs>

  <!-- Pin teal -->
  <path fill="#45C6C0" mask="url(#m)" d="
    M 74 8
    C 40 8 13 35 13 69
    C 13 88 22 105 36 116
    C 48 126 74 158 74 158
    C 74 158 100 126 112 116
    C 126 105 135 88 135 69
    C 135 35 108 8 74 8 Z
  "/>

  <!-- Anillo amarillo con agujero transparente -->
  <path fill="#F9C200" fill-rule="evenodd" d="
    M 74 35
    A 34 34 0 1 0 74 103
    A 34 34 0 1 0 74 35 Z
    M 74 48
    A 21 21 0 1 1 74 90
    A 21 21 0 1 1 74 48 Z
  "/>

  <!-- Mango amarillo -->
  <line x1="93" y1="87" x2="122" y2="116"
        stroke="#F9C200" stroke-width="13" stroke-linecap="round"/>

  <text x="160" y="108"
        font-family="'Montserrat','Arial Black','Arial',sans-serif"
        font-size="74" font-weight="900" letter-spacing="0">
    <tspan fill="#1E293B">FYN</tspan><tspan fill="#F9C200">DER</tspan>
  </text>
</svg>
